<svg width="29" height="26" viewBox="0 0 29 26" fill="none" xmlns="http://www.w3.org/2000/svg">
<path d="M5.53833 0C4.21225 0 2.94048 0.526784 2.0028 1.46447C1.06511 2.40215 0.53833 3.67392 0.53833 5V15C0.53833 15.6566 0.667659 16.3068 0.918932 16.9134C1.17021 17.52 1.5385 18.0712 2.0028 18.5355C2.94048 19.4732 4.21225 20 5.53833 20H6.53833V23.884C6.53826 24.2605 6.64663 24.6291 6.85049 24.9456C7.05434 25.2621 7.34505 25.5133 7.68786 25.6689C8.03066 25.8246 8.41105 25.8783 8.78355 25.8235C9.15604 25.7687 9.50487 25.6078 9.78833 25.36L15.9143 20H23.5383C24.1949 20 24.8451 19.8707 25.4517 19.6194C26.0584 19.3681 26.6096 18.9998 27.0739 18.5355C27.5382 18.0712 27.9065 17.52 28.1577 16.9134C28.409 16.3068 28.5383 15.6566 28.5383 15V5C28.5383 3.67392 28.0115 2.40215 27.0739 1.46447C26.1362 0.526784 24.8644 0 23.5383 0H5.53833Z" fill="#131C3D"/>
</svg>
