<svg width="32" height="32" viewBox="0 0 32 32" fill="none" xmlns="http://www.w3.org/2000/svg">
<path d="M25.3332 26.6666H6.66657C6.31295 26.6666 5.97381 26.8071 5.72377 27.0572C5.47372 27.3072 5.33324 27.6464 5.33324 28C5.33324 28.3536 5.47372 28.6927 5.72377 28.9428C5.97381 29.1928 6.31295 29.3333 6.66657 29.3333H25.3332C25.6869 29.3333 26.026 29.1928 26.276 28.9428C26.5261 28.6927 26.6666 28.3536 26.6666 28C26.6666 27.6464 26.5261 27.3072 26.276 27.0572C26.026 26.8071 25.6869 26.6666 25.3332 26.6666ZM6.66657 24H6.78657L12.3466 23.4933C12.9556 23.4326 13.5253 23.1643 13.9599 22.7333L25.9599 10.7333C26.4257 10.2413 26.6774 9.58465 26.6599 8.90735C26.6424 8.23006 26.3571 7.58732 25.8666 7.11997L22.2132 3.46664C21.7364 3.01877 21.1116 2.76179 20.4577 2.74458C19.8037 2.72737 19.1663 2.95113 18.6666 3.37331L6.66657 15.3733C6.23559 15.8079 5.96725 16.3776 5.90657 16.9866L5.33324 22.5466C5.31528 22.7419 5.34062 22.9388 5.40746 23.1232C5.47429 23.3075 5.58098 23.4749 5.71991 23.6133C5.84449 23.7369 5.99225 23.8346 6.1547 23.901C6.31715 23.9674 6.4911 24.001 6.66657 24ZM20.3599 5.33331L23.9999 8.97331L21.3332 11.5733L17.7599 7.99997L20.3599 5.33331ZM8.49324 17.2133L15.9999 9.75997L19.5999 13.36L12.1332 20.8266L8.13324 21.2L8.49324 17.2133Z" fill="#131C3D" fill-opacity="0.3"/>
</svg>
