<svg width="28" height="24" viewBox="0 0 28 24" fill="none" xmlns="http://www.w3.org/2000/svg">
<path d="M19.9925 0.171082C17.4128 0.171082 15.2085 2.00985 13.9974 3.27754C12.7863 2.00985 10.587 0.171082 8.0085 0.171082C3.5642 0.171082 0.461426 3.26893 0.461426 7.70339C0.461426 12.5895 4.31496 15.7477 8.04296 18.8025C9.80296 20.2462 11.6245 21.7379 13.0214 23.392C13.2565 23.6689 13.6011 23.8289 13.963 23.8289H14.0343C14.3974 23.8289 14.7408 23.6677 14.9747 23.392C16.374 21.7379 18.1944 20.2449 19.9556 18.8025C23.6824 15.7489 27.5383 12.5908 27.5383 7.70339C27.5383 3.26893 24.4356 0.171082 19.9925 0.171082V0.171082Z" fill="#FF0000"/>
</svg>
