<svg width="28" height="28" viewBox="0 0 28 28" fill="none" xmlns="http://www.w3.org/2000/svg">
<path d="M22.1935 19.8064C21.6471 19.283 21.1153 18.7446 20.5987 18.1918C20.1647 17.7508 19.9034 17.4299 19.9034 17.4299L16.6367 15.8701C17.9445 14.3868 18.6663 12.4774 18.6667 10.4999C18.6667 5.99775 15.0034 2.33325 10.5 2.33325C5.99671 2.33325 2.33337 5.99775 2.33337 10.4999C2.33337 15.0021 5.99671 18.6666 10.5 18.6666C12.5569 18.6666 14.4317 17.8966 15.8702 16.6377L17.43 19.9044C17.43 19.9044 17.7509 20.1657 18.1919 20.5997C18.6434 21.0232 19.2372 21.5961 19.8065 22.1946L21.3909 23.8186L22.0955 24.5722L24.57 22.0977L23.8164 21.3931C23.3742 20.9591 22.7839 20.3827 22.1935 19.8064ZM10.5 16.3333C7.28354 16.3333 4.66671 13.7164 4.66671 10.4999C4.66671 7.28342 7.28354 4.66658 10.5 4.66658C13.7165 4.66658 16.3334 7.28342 16.3334 10.4999C16.3334 13.7164 13.7165 16.3333 10.5 16.3333Z" fill="#131C3D"/>
</svg>
