<svg width="32" height="32" viewBox="0 0 32 32" fill="none" xmlns="http://www.w3.org/2000/svg">
<path d="M12.3749 16C12.3749 16.9283 12.7437 17.8185 13.4001 18.4749C14.0564 19.1313 14.9467 19.5 15.8749 19.5C16.8032 19.5 17.6934 19.1313 18.3498 18.4749C19.0062 17.8185 19.375 16.9283 19.375 16C19.375 15.0717 19.0062 14.1815 18.3498 13.5251C17.6934 12.8687 16.8032 12.5 15.8749 12.5C14.9467 12.5 14.0564 12.8687 13.4001 13.5251C12.7437 14.1815 12.3749 15.0717 12.3749 16ZM29.4437 15.1938C26.4812 8.95313 22.0031 5.8125 15.9999 5.8125C9.99369 5.8125 5.51869 8.95312 2.55619 15.1969C2.43736 15.4485 2.37573 15.7233 2.37573 16.0016C2.37573 16.2798 2.43736 16.5546 2.55619 16.8062C5.51869 23.0469 9.99682 26.1875 15.9999 26.1875C22.0062 26.1875 26.4812 23.0469 29.4437 16.8031C29.6843 16.2969 29.6843 15.7094 29.4437 15.1938ZM15.8749 21.5C12.8374 21.5 10.3749 19.0375 10.3749 16C10.3749 12.9625 12.8374 10.5 15.8749 10.5C18.9124 10.5 21.375 12.9625 21.375 16C21.375 19.0375 18.9124 21.5 15.8749 21.5Z" fill="#131C3D"/>
</svg>
