<svg width="455" height="166" viewBox="0 0 455 166" fill="none" xmlns="http://www.w3.org/2000/svg">
<path d="M365.322 93.2945H371.214V134.54H335.86V93.2945H341.753V90.3483C341.753 88.7856 342.373 87.2869 343.478 86.1819C344.583 85.0768 346.082 84.4561 347.645 84.4561H359.429C360.992 84.4561 362.491 85.0768 363.596 86.1819C364.701 87.2869 365.322 88.7856 365.322 90.3483V93.2945ZM374.16 93.2945H377.106C378.669 93.2945 380.168 93.9153 381.273 95.0203C382.378 96.1253 382.999 97.624 382.999 99.1868V128.648C382.999 130.211 382.378 131.71 381.273 132.815C380.168 133.92 378.669 134.54 377.106 134.54H374.16V93.2945ZM332.914 93.2945V134.54H329.968C328.405 134.54 326.907 133.92 325.801 132.815C324.696 131.71 324.076 130.211 324.076 128.648V99.1868C324.076 95.946 326.727 93.2945 329.968 93.2945H332.914ZM347.645 90.3483V93.2945H359.429V90.3483H347.645Z" fill="#FF984E"/>
<path d="M0 50.8046H24.6167V134.213H39.151V50.8046H64.0295V37.9725H0V50.8046Z" fill="#F7F8FF"/>
<path d="M75.2269 74.1119H61.0854V134.213H75.2269V103.311C75.2269 97.5501 76.8855 93.36 80.2026 90.7412C83.607 88.1224 87.3606 86.813 91.4634 86.813C94.0822 86.813 95.7844 87.0749 96.57 87.5987L98.5341 73.3262C97.4866 72.8025 95.5662 72.5406 92.7728 72.5406C88.7573 72.5406 85.1783 73.7627 82.0358 76.2069C78.8932 78.6511 76.6236 81.881 75.2269 85.8965V74.1119Z" fill="#F7F8FF"/>
<path fill-rule="evenodd" clip-rule="evenodd" d="M113.51 131.725C118.137 134.257 123.156 135.523 128.568 135.523C133.457 135.523 137.865 134.344 141.793 131.987C145.722 129.543 148.428 126.75 149.912 123.607L150.173 134.213H163.529V74.1119H150.043L149.781 84.1942C149.082 82.4484 147.686 80.7025 145.591 78.9566C143.496 77.1235 140.92 75.5959 137.865 74.3738C134.81 73.1517 131.536 72.5406 128.045 72.5406C122.021 72.5406 116.784 73.85 112.332 76.4688C107.88 79.0876 104.432 82.7539 101.988 87.4677C99.6308 92.1816 98.4523 97.681 98.4523 103.966C98.4523 110.339 99.8054 115.925 102.511 120.726C105.305 125.44 108.971 129.107 113.51 131.725ZM143.496 118.631C140.091 122.036 135.901 123.738 130.925 123.738C125.251 123.738 120.887 121.949 117.831 118.369C114.863 114.703 113.379 109.946 113.379 104.097C113.379 98.3357 114.907 93.6655 117.962 90.0865C121.018 86.4202 125.339 84.5871 130.925 84.5871C134.155 84.5871 137.123 85.4163 139.829 87.0749C142.535 88.7335 144.674 91.0467 146.245 94.0147C147.817 96.9827 148.602 100.343 148.602 104.097V105.014C148.602 110.6 146.9 115.14 143.496 118.631Z" fill="#F7F8FF"/>
<path d="M182.546 74.1119H166.441L198.128 134.213H200.878L232.434 74.1119H216.722L203.889 101.216L199.699 112.084L195.509 101.216L182.546 74.1119Z" fill="#F7F8FF"/>
<path fill-rule="evenodd" clip-rule="evenodd" d="M243.863 131.333C248.664 134.126 254.644 135.523 261.802 135.523C267.126 135.523 271.666 134.999 275.419 133.951C279.173 132.904 282.141 131.682 284.323 130.285L280.002 120.203C277.733 121.425 275.245 122.385 272.539 123.083C269.833 123.782 266.384 124.131 262.194 124.131C257.131 124.131 253.16 122.952 250.279 120.595C247.486 118.239 245.609 114.398 244.648 109.073H287.859C288.12 106.541 288.251 104.097 288.251 101.74C288.251 92.4871 285.982 85.329 281.443 80.266C276.991 75.1158 270.138 72.5406 260.885 72.5406C254.949 72.5406 249.624 73.85 244.91 76.4688C240.197 79.0003 236.487 82.6666 233.78 87.4677C231.162 92.2688 229.852 97.8556 229.852 104.228C229.852 109.902 230.987 115.14 233.257 119.941C235.526 124.655 239.062 128.452 243.863 131.333ZM270.967 87.8605C273.412 90.0429 274.59 93.8401 274.503 99.2523H244.648C246.045 89.3882 251.326 84.4561 260.492 84.4561C265.031 84.4561 268.523 85.5909 270.967 87.8605Z" fill="#F7F8FF"/>
<path d="M311.719 37.9725H297.709V134.213H311.719V37.9725Z" fill="#F7F8FF"/>
<path fill-rule="evenodd" clip-rule="evenodd" d="M408.996 163.806C413.361 165.028 417.769 165.639 422.221 165.639C433.22 165.639 441.338 162.889 446.576 157.39C451.813 151.89 454.432 144.034 454.432 133.82V74.1119H441.076L440.815 84.1942C440.116 82.4484 438.676 80.7025 436.493 78.9566C434.398 77.1235 431.823 75.5959 428.768 74.3738C425.713 73.1517 422.439 72.5406 418.948 72.5406C413.012 72.5406 407.818 73.85 403.366 76.4688C398.914 79.0876 395.466 82.7976 393.022 87.5987C390.665 92.3125 389.486 97.7247 389.486 103.835C389.486 110.208 390.752 115.794 393.283 120.595C395.815 125.397 399.263 129.107 403.628 131.725C407.992 134.257 412.793 135.523 418.031 135.523C423.007 135.523 427.546 134.388 431.649 132.118C435.752 129.849 438.719 127.012 440.553 123.607V134.344C440.465 141.677 438.632 146.609 435.053 149.14C431.474 151.672 427.066 152.938 421.828 152.938C415.019 152.938 408.734 151.061 402.973 147.307L399.83 160.401C401.664 161.449 404.719 162.583 408.996 163.806ZM434.529 118.5C431.125 121.905 426.935 123.607 421.959 123.607C416.285 123.607 411.92 121.818 408.865 118.239C405.897 114.572 404.413 109.815 404.413 103.966C404.413 98.2048 405.941 93.5346 408.996 89.9556C412.051 86.2893 416.372 84.4561 421.959 84.4561C425.189 84.4561 428.157 85.2854 430.863 86.944C433.569 88.6025 435.708 90.9158 437.279 93.8838C438.85 96.8517 439.636 100.213 439.636 103.966V104.883C439.636 110.469 437.934 115.009 434.529 118.5Z" fill="#F7F8FF"/>
<path fill-rule="evenodd" clip-rule="evenodd" d="M61.2209 5.22404C62.4708 5.84959 63.421 6.94601 63.8626 8.27212C64.2944 9.5667 64.2076 10.9783 63.6203 12.2102C63.0331 13.4421 61.9911 14.3984 60.7135 14.878L13.094 32.7349L0 19.641L3.27349 16.3675L16.3675 22.9144L29.4614 16.3675L9.82048 3.27349L16.3675 0L42.5554 9.82048L57.1977 4.93643C58.5239 4.49503 59.9711 4.59849 61.2209 5.22404Z" fill="#FF984E"/>
</svg>
