<svg width="169" height="126" viewBox="0 0 169 126" fill="none" xmlns="http://www.w3.org/2000/svg">
<path d="M0 0H169V126H0V0Z" fill="#CC0000"/>
<path d="M0.13208 10.4738H168.868V20.5538H0.13208V10.4738Z" fill="white"/>
<path d="M0.13208 31.1325H168.868V41.2125H0.13208V31.1325Z" fill="white"/>
<path d="M0.13208 51.8175H168.868V61.8975H0.13208V51.8175Z" fill="white"/>
<path d="M0 0.131226H84.5V73.6312H0V0.131226Z" fill="#000066"/>
<path d="M54.793 19.3725L56.3774 30.0562L62.4508 21.1312L59.1765 31.4212L68.5507 25.9612L61.1305 33.8362L71.9571 32.9962L61.8435 36.8812L71.9571 40.7662L61.1305 39.9262L68.5507 47.8012L59.1765 42.3412L62.4244 52.6575L56.351 43.7062L54.7666 54.39L53.2087 43.7062L47.1352 52.6312L50.4096 42.3412L41.0354 47.8012L48.4291 39.9262L37.6026 40.7662L47.7426 36.8812L37.629 32.9962L48.4555 33.8362L41.0354 25.9612L50.4096 31.4212L47.1352 21.105L53.2087 30.0562L54.793 19.3725ZM45.9997 19.8187C43.1414 18.5592 40.012 18.0292 36.8953 18.2768C33.7787 18.5244 30.7737 19.5419 28.1529 21.2368C25.5322 22.9316 23.3787 25.2503 21.8879 27.9823C20.3972 30.7143 19.6164 33.7732 19.6164 36.8812C19.6164 39.9893 20.3972 43.0481 21.8879 45.7801C23.3787 48.5121 25.5322 50.8308 28.1529 52.5257C30.7737 54.2206 33.7787 55.238 36.8953 55.4856C40.012 55.7333 43.1414 55.2033 45.9997 53.9437C42.843 56.1953 39.1227 57.5378 35.2481 57.8236C31.3736 58.1095 27.4947 57.3276 24.0382 55.5639C20.5817 53.8003 17.6814 51.1232 15.6563 47.8271C13.6312 44.5309 12.5597 40.7435 12.5597 36.8812C12.5597 33.019 13.6312 29.2315 15.6563 25.9354C17.6814 22.6393 20.5817 19.9622 24.0382 18.1985C27.4947 16.4349 31.3736 15.653 35.2481 15.9388C39.1227 16.2247 42.843 17.5672 45.9997 19.8187Z" fill="#FFCC00"/>
<path d="M0.13208 72.5025H168.868V82.5825H0.13208V72.5025Z" fill="white"/>
<path d="M0.13208 93.03H168.868V103.11H0.13208V93.03Z" fill="white"/>
<path d="M0 115.92H168.736V126H0V115.92Z" fill="white"/>
</svg>
