<svg width="167" height="126" viewBox="0 0 167 126" fill="none" xmlns="http://www.w3.org/2000/svg">
<path fill-rule="evenodd" clip-rule="evenodd" d="M-5.21875 0H182.656V126H-5.21875V0Z" fill="white"/>
<path fill-rule="evenodd" clip-rule="evenodd" d="M-5.21875 0H182.656V63H-5.21875V0Z" fill="#DF0000"/>
<path fill-rule="evenodd" clip-rule="evenodd" d="M38.0968 10.5525C33.1542 11.6211 28.7274 14.3678 25.5598 18.3315C22.3922 22.2952 20.6767 27.2345 20.7012 32.3203C20.7256 37.406 22.4887 42.3284 25.6943 46.261C28.8999 50.1937 33.3529 52.8972 38.3056 53.9175C35.4683 54.7434 32.4969 54.9978 29.5617 54.6659C26.6265 54.3341 23.7854 53.4226 21.2011 51.9837C18.6169 50.5448 16.3404 48.6069 14.5023 46.281C12.6642 43.9552 11.3005 41.2872 10.4896 38.43C8.87905 32.6867 9.59443 26.5356 12.4794 21.3214C15.3643 16.1073 20.1841 12.2543 25.8849 10.605C30.0599 9.39751 33.9218 9.37126 38.1229 10.5525H38.0968Z" fill="white"/>
<path fill-rule="evenodd" clip-rule="evenodd" d="M34.7046 28.8749L35.9832 32.8124L32.591 30.3974L29.251 32.8649L30.4775 28.8749L27.1375 26.4337L31.2864 26.3812L32.591 22.4437L33.8957 26.3812H38.0185L34.7046 28.8749ZM39.271 42.5249L40.5757 46.4887L37.1835 44.0737L33.8175 46.5149L35.0699 42.5512L31.7299 40.0837L35.8789 40.0574L37.1574 36.0937L38.4621 40.0312H42.6371L39.271 42.5249ZM54.5359 42.4199L55.8145 46.4099L52.4223 43.9687L49.0823 46.4099L50.3087 42.4462L46.9687 40.0049L51.1176 39.9524L52.4223 36.0149L53.727 39.9524H57.8498L54.5359 42.4199ZM59.0762 28.8749L60.3548 32.8387L56.9626 30.4237L53.6226 32.8649L54.8751 28.9012L51.509 26.4337L55.684 26.4074L56.9365 22.4437L58.2412 26.3812H62.4162L59.0762 28.8749ZM46.9948 19.8712L48.2995 23.8612L44.9073 21.4199L41.5412 23.8874L42.7937 19.8974L39.4537 17.4299L43.5765 17.4037L44.8812 13.4399L46.1859 17.3774H50.3609L46.9948 19.8712Z" fill="white"/>
</svg>
